<svg width="595" height="595" viewBox="0 0 595 595" fill="none" xmlns="http://www.w3.org/2000/svg">
<rect x="2.5" y="2.5" width="590" height="590" stroke="black" stroke-width="5"/>
<path fill-rule="evenodd" clip-rule="evenodd" d="M36 87L0.5 51V68L53 117.5L79 140L114 154.5L143.5 151.5L181.5 140L220.5 114.5L259 87L296.5 71.5L336.5 51L399 18L394.5 8L311.5 51L268.5 68L242 83L205 111L168 133.5L133.5 143.5L108.5 140L79 121.5L36 87Z" fill="black"/>
<path fill-rule="evenodd" clip-rule="evenodd" d="M18.5 527.5L1.5 465V514.5L8 532L18.5 527.5Z" fill="black"/>
<path fill-rule="evenodd" clip-rule="evenodd" d="M29 518L1.5 384V313.5L10 349L14.5 396L43.5 518L55 550.5L43.5 554.5L29 518Z" fill="black"/>
<path fill-rule="evenodd" clip-rule="evenodd" d="M17 330.5L2.5 292.5V262.5L27.5 330.5H17Z" fill="black"/>
<path fill-rule="evenodd" clip-rule="evenodd" d="M39 288.5L1 173V140L16 165.5L32 205.5L55.5 288.5L68.5 342L83 384.5L91.5 414L99 509.5H87L75 414L39 288.5Z" fill="black"/>
<path fill-rule="evenodd" clip-rule="evenodd" d="M27.5 184.5L1 137V118L43 184.5L64 249L81.5 320L88.5 350.5L105 387L113.5 422L119.5 465V481H107V465L102 422L94 390.5L76.5 350.5L68.5 320L52 249L27.5 184.5Z" fill="black"/>
<path fill-rule="evenodd" clip-rule="evenodd" d="M34 64L1 39V24L31.5 48L67.5 64L127 69.5L178.5 54.5L245.5 27.5L250.5 39L183.5 66.5L135.5 80H78L34 64Z" fill="black"/>
<path fill-rule="evenodd" clip-rule="evenodd" d="M50 123.5L1 78V93.5L60.5 145L101 176.5L131 185.5L169.5 182.5L205 165L236 138L272.5 108L328 78L360 58L351 48.5L316 70.5L272.5 93.5L233.5 120.5L200.5 151L169.5 170L131 173L104 165L77.5 145L50 123.5Z" fill="black"/>
<path fill-rule="evenodd" clip-rule="evenodd" d="M96.5 185.5L1 105V119L96.5 199L135.5 220L175 225.5L220.5 220L268 190.5L336 131L392 68.5L383 61L325 125L275 169L220.5 204.5L175 212L135.5 204.5L96.5 185.5Z" fill="black"/>
<path fill-rule="evenodd" clip-rule="evenodd" d="M539 122.5L571 114V125L539 137L505 156.5L485 189.5L473 240.5L463 326L447.5 372L418 411.5L379 442L325 468L291.5 479H253.5L227 465L178.5 429.5L134.5 380L99.5 323L72 265L51 205.5L2 131V101.5L36 150L79.5 223L99.5 271L144 357.5L209 429.5L224.5 445L253.5 465H291.5L319.5 456L379 429.5L407.5 406L435.5 367L451 326L460.5 247L470.5 192L482.5 167L505 142.5L539 122.5Z" fill="black"/>
<path fill-rule="evenodd" clip-rule="evenodd" d="M140.5 301L67 203L87.5 253L134.5 313L180.5 346.5L236 360L275.5 342.5L313 304L360.5 226.5L400 147.5L428.5 104L416.5 94L360.5 197L316 282.5L275.5 328L236 346.5L206.5 342.5L171 325.5L140.5 301Z" fill="black"/>
<path fill-rule="evenodd" clip-rule="evenodd" d="M452 182.5L440.5 179L433.5 206L428.5 241L421.5 300.5L411 350.5L392.5 392L346.5 431.5L296 455.5L267 458L243.5 450L205 426L194 431.5L225 455.5L257 469.5H296L366 444L389 423L411 395.5L425.5 364L437 293.5L440.5 247L452 182.5Z" fill="black"/>
<path fill-rule="evenodd" clip-rule="evenodd" d="M35 15.5L12.5 2.5H1.5V11.5L28 26.5L35 15.5Z" fill="black"/>
<path fill-rule="evenodd" clip-rule="evenodd" d="M233.5 304.5V294.5L206 291L183.5 284L157 270L130 248.5L93.5 210.5L69 170.5L39.5 143L28.5 147L42.5 173.5L89 231.5L134.5 277.5L186 299L233.5 304.5Z" fill="black"/>
<path fill-rule="evenodd" clip-rule="evenodd" d="M171 369.5L180 358L167 345L134.5 319L103.5 270H95L100 294L128 331.5L171 369.5Z" fill="black"/>
<path fill-rule="evenodd" clip-rule="evenodd" d="M185.5 390L129 331.5L137 357L201.5 423L236 440.5L269 444.5L293.5 436L314.5 423L334.5 404L350 380.5L338.5 376L325 396.5L301 416.5L275 432.5H256L227.5 423L185.5 390Z" fill="black"/>
<path fill-rule="evenodd" clip-rule="evenodd" d="M479.5 432.5L471 424.5L444.5 452L420.5 468L373 494L322.5 500L281.5 494L238 476L220 452L181.5 432.5L224.5 487L281.5 512.5L345 515.5L400.5 494L452.5 462.5L479.5 432.5Z" fill="black"/>
<path fill-rule="evenodd" clip-rule="evenodd" d="M136 401L103.5 328.5L140.5 379.5L149 401L167 453.5L193 576L182.5 578.5L154.5 453.5L136 401Z" fill="black"/>
<path fill-rule="evenodd" clip-rule="evenodd" d="M118 218.5L87.5 201.5L89.5 217L118 232L158.5 245L191.5 248L231 236.5L263 218.5L299 189L332 157.5L323.5 151L299 176L263 203L231 222L191.5 233.5L158.5 232L118 218.5Z" fill="black"/>
<path fill-rule="evenodd" clip-rule="evenodd" d="M578.5 390L568 383.5L541.5 430L521 477.5L485 528.5L448 558.5L409 572.5L364.5 569L304.5 552.5L261.5 536.5L226.5 506L204.5 477.5L180.5 422.5L158.5 402.5L202.5 495L248 541L309.5 566.5L388 583.5L442.5 575.5L489 541L521 506L541.5 469.5L552 438.5L578.5 390Z" fill="black" stroke="black"/>
<path fill-rule="evenodd" clip-rule="evenodd" d="M518.5 462.5L508.5 459.5L493.5 484.5L474 508L454 525.5L429.5 538.5L399.5 546.5H359.5L311 538.5L281 528L248.5 508L228.5 495L206 466L180.5 427L185.5 442.5L211 495L261.5 541L298.5 550L335 560L369 562.5L408.5 557.5L437.5 550L465 533L493.5 508L508.5 482L518.5 462.5Z" fill="black" stroke="black"/>
<path fill-rule="evenodd" clip-rule="evenodd" d="M483.5 594H466L526 518L536.5 524.5L483.5 594Z" fill="black" stroke="black"/>
<path fill-rule="evenodd" clip-rule="evenodd" d="M578 466.5L538 594H557L586 469L578 466.5Z" fill="black"/>
</svg>
