<?xml version="1.0" encoding="UTF-8" standalone="no"?>
<!-- Created with Inkscape (http://www.inkscape.org/) -->

<svg
   version="1.1"
   id="svg2"
   width="1000"
   height="1158.3093"
   viewBox="0 0 1000 1158.3094"
   sodipodi:docname="logo.svg"
   inkscape:version="1.2.2 (732a01da63, 2022-12-09)"
   xmlns:inkscape="http://www.inkscape.org/namespaces/inkscape"
   xmlns:sodipodi="http://sodipodi.sourceforge.net/DTD/sodipodi-0.dtd"
   xmlns="http://www.w3.org/2000/svg"
   xmlns:svg="http://www.w3.org/2000/svg">
  <defs
     id="defs6">
    <clipPath
       clipPathUnits="userSpaceOnUse"
       id="clipPath20">
      <path
         d="M 0,1000 H 1000 V 0 H 0 Z"
         id="path18" />
    </clipPath>
    <clipPath
       clipPathUnits="userSpaceOnUse"
       id="clipPath30">
      <path
         d="M 0,1000 H 1000 V 0 H 0 Z"
         id="path28" />
    </clipPath>
    <clipPath
       clipPathUnits="userSpaceOnUse"
       id="clipPath72">
      <path
         d="M 0,1000 H 1000 V 0 H 0 Z"
         id="path70" />
    </clipPath>
    <clipPath
       clipPathUnits="userSpaceOnUse"
       id="clipPath92">
      <path
         d="M 0,1000 H 1000 V 0 H 0 Z"
         id="path90" />
    </clipPath>
    <clipPath
       clipPathUnits="userSpaceOnUse"
       id="clipPath331">
      <g
         id="g335"
         transform="translate(-518.0547,-388.624)">
        <path
           d="M 0,1000 H 1000 V 0 H 0 Z"
           id="path333" />
      </g>
    </clipPath>
    <clipPath
       clipPathUnits="userSpaceOnUse"
       id="clipPath337">
      <g
         id="g341"
         transform="translate(-737.0703,-534.5)">
        <path
           d="M 0,1000 H 1000 V 0 H 0 Z"
           id="path339" />
      </g>
    </clipPath>
    <clipPath
       clipPathUnits="userSpaceOnUse"
       id="clipPath343">
      <g
         id="g347"
         transform="translate(-375.0098,-388.21)">
        <path
           d="M 0,1000 H 1000 V 0 H 0 Z"
           id="path345" />
      </g>
    </clipPath>
    <clipPath
       clipPathUnits="userSpaceOnUse"
       id="clipPath349">
      <g
         id="g353"
         transform="translate(-796.2627,-824.2749)">
        <path
           d="M 0,1000 H 1000 V 0 H 0 Z"
           id="path351" />
      </g>
    </clipPath>
  </defs>
  <sodipodi:namedview
     id="namedview4"
     pagecolor="#ffffff"
     bordercolor="#000000"
     borderopacity="0.25"
     inkscape:showpageshadow="2"
     inkscape:pageopacity="0"
     inkscape:pagecheckerboard="true"
     inkscape:deskcolor="#d1d1d1"
     showgrid="false"
     inkscape:zoom="1"
     inkscape:cx="335"
     inkscape:cy="565.5"
     inkscape:window-width="2560"
     inkscape:window-height="1351"
     inkscape:window-x="1341"
     inkscape:window-y="271"
     inkscape:window-maximized="1"
     inkscape:current-layer="g10">
    <inkscape:page
       x="0"
       y="0"
       id="page8"
       width="1000"
       height="1158.3094" />
    <inkscape:grid
       type="xygrid"
       id="grid463"
       originx="-124.05332"
       originy="-1.1258534" />
  </sodipodi:namedview>
  <g
     id="g10"
     inkscape:groupmode="layer"
     inkscape:label="Page 1"
     transform="matrix(1.3333333,0,0,-1.3333333,-124.05332,1332.2074)">
    <path
       id="path4483"
       style="color:#000000;display:inline;fill:#000000;stroke-width:84.3266;stroke-miterlimit:10;-inkscape-stroke:none"
       inkscape:label="Logo"
       d="M 93.039992,998.78204 V 757.92949 l 0.01612,-0.59179 c 1.214111,-42.86304 19.222728,-81.97913 47.379298,-110.71583 0.007,-0.007 0.0125,-0.0152 0.019,-0.022 0.70107,-0.718 1.38535,-1.39934 2.03723,-2.03467 l -0.37667,0.37061 15.90204,-15.89502 V 130.42557 h 212.06734 v 286.66261 l 52.63356,-52.60694 c 0.69209,-0.72496 1.40261,-1.43205 2.13103,-2.12549 l 43.18613,-43.16308 0.003,-0.004 10e-4,10e-4 0.003,-0.003 43.18906,43.16748 c 0.72842,0.69344 1.43894,1.40053 2.13103,2.12549 l 52.63356,52.60693 v -286.6626 h 212.06729 v 498.61524 l 15.90204,15.89502 -0.37667,-0.3706 c 0.65188,0.63533 1.33618,1.31667 2.03724,2.03467 0.007,0.007 0.012,0.015 0.019,0.022 28.15656,28.73669 46.16517,67.85279 47.37929,110.71582 l 0.0161,0.5918 V 998.78057 L 728.7421,884.54913 548.85848,704.75127 468.03947,623.97685 387.22046,704.75274 207.33684,884.55059 Z M 135.28666,897.42657 177.87483,854.8626 357.75551,675.06475 468.03654,564.84404 v -0.009 l 0.004,0.004 0.003,-0.003 v 0.006 l 110.27957,110.2207 179.88069,179.79786 42.58962,42.56396 v -138.9018 c -0.90422,-31.96127 -14.20639,-60.90708 -35.41392,-82.54395 -0.4521,-0.46423 -0.90799,-0.91582 -1.3601,-1.35645 L 468.04093,378.80009 172.05922,674.62383 c -0.45211,0.44063 -0.90654,0.89221 -1.35864,1.35644 -21.20753,21.63687 -34.5097,50.58268 -35.41392,82.54395 z m 64.90525,-312.17286 h 1.26045 l 95.97944,-99.0791 c 0.39364,-0.39473 0.774,-0.79043 1.15638,-1.19678 17.24093,-18.07677 28.22027,-42.52617 29.32132,-69.61231 V 172.57645 H 200.19191 Z m 534.43467,-10e-4 h 1.26191 V 172.57499 H 608.17091 v 242.78907 c 1.10105,27.08614 12.08038,51.53553 29.32131,69.6123 0.38238,0.40635 0.76274,0.80205 1.15638,1.19678 z" />
  </g>
</svg>
