<?xml version="1.0" standalone="no"?>
<!DOCTYPE svg PUBLIC "-//W3C//DTD SVG 20010904//EN"
 "http://www.w3.org/TR/2001/REC-SVG-20010904/DTD/svg10.dtd">
<svg version="1.0" xmlns="http://www.w3.org/2000/svg"
 width="1158.000000pt" height="1158.000000pt" viewBox="0 0 1158.000000 1158.000000"
 preserveAspectRatio="xMidYMid meet">
<metadata>
Created by potrace 1.14, written by Peter Selinger 2001-2017
</metadata>
<g transform="translate(0.000000,1158.000000) scale(0.100000,-0.100000)"
fill="#000000" stroke="none">
<path d="M793 9884 c2 -929 6 -1705 10 -1724 4 -19 12 -66 18 -105 6 -38 18
-96 26 -127 8 -32 16 -66 18 -75 1 -10 13 -49 26 -88 13 -38 24 -72 24 -75 1
-3 5 -14 10 -25 4 -11 24 -58 43 -105 19 -47 39 -88 46 -92 6 -4 7 -8 3 -8 -9
0 54 -123 66 -128 4 -2 7 -10 7 -18 0 -8 5 -14 10 -14 6 0 10 -5 10 -11 0 -9
115 -185 130 -199 3 -3 25 -30 50 -60 61 -75 115 -133 250 -267 l116 -114 -1
-3325 0 -3324 1411 0 c1121 0 1413 3 1416 13 2 6 4 864 3 1905 0 1040 2 1892
5 1892 3 0 296 -291 652 -647 l648 -648 645 645 c355 355 649 646 653 648 4 1
8 -854 8 -1900 l0 -1903 1409 -3 c836 -1 1411 2 1414 7 3 5 6 1500 5 3323 l0
3313 143 145 c182 185 199 204 272 303 34 45 65 87 69 92 4 6 19 28 32 50 13
22 28 42 32 43 4 2 8 9 8 16 0 6 11 28 25 49 14 20 22 37 18 37 -4 0 -3 4 3 8
10 7 104 197 104 211 0 4 11 35 25 70 28 67 91 292 100 356 9 68 15 99 22 130
4 17 9 792 10 1724 l4 1694 -45 -39 c-24 -21 -45 -43 -46 -49 -2 -5 -55 -59
-120 -120 -65 -60 -119 -114 -120 -120 -1 -5 -55 -59 -119 -120 -64 -60 -143
-140 -176 -176 -33 -37 -63 -67 -66 -68 -6 -1 -319 -313 -319 -318 0 -4 -39
-43 -43 -43 -4 0 -357 -353 -357 -357 0 -4 -39 -43 -43 -43 -2 0 -801 -797
-1775 -1771 l-1772 -1770 -2495 2493 c-1373 1371 -2498 2495 -2501 2497 -2 3
-3 -755 -1 -1685z m2781 -1879 c1214 -1213 2211 -2205 2216 -2205 5 0 1003
992 2217 2205 1213 1213 2210 2205 2213 2205 4 0 6 -440 5 -977 -1 -538 -3
-978 -5 -978 -1 0 -4 -11 -5 -25 -1 -14 -5 -43 -9 -65 -4 -22 -9 -51 -11 -65
-1 -14 -8 -45 -15 -70 -7 -25 -13 -49 -14 -55 -1 -5 -11 -35 -21 -65 -11 -30
-20 -57 -20 -60 -1 -3 -7 -18 -13 -33 -7 -16 -12 -33 -12 -38 0 -5 -5 -9 -12
-9 -6 0 -8 -3 -5 -6 17 -17 -148 -286 -243 -398 -19 -23 -938 -944 -2042
-2048 l-2008 -2007 -2003 2002 c-1102 1101 -2027 2030 -2055 2065 -108 131
-204 291 -264 440 -16 43 -32 84 -33 92 -2 8 -4 15 -5 15 -1 0 -3 7 -5 15 -2
8 -13 48 -24 89 -11 41 -19 77 -19 80 1 3 -2 20 -6 38 -4 18 -10 54 -13 80 -8
71 -10 1983 -2 1983 3 0 999 -992 2213 -2205z m-1237 -2047 c200 -203 323
-333 323 -340 0 -5 7 -8 15 -8 8 0 15 -4 15 -9 0 -4 46 -55 103 -113 241 -248
742 -767 775 -803 86 -94 222 -310 222 -352 0 -7 4 -13 9 -13 5 0 12 -12 17
-27 9 -34 9 -34 17 -53 12 -29 37 -107 41 -131 3 -13 6 -26 7 -29 1 -3 3 -9 4
-15 2 -5 4 -12 5 -15 2 -8 11 -52 14 -80 2 -14 5 -25 6 -25 1 0 3 -25 4 -55 1
-31 6 -62 11 -69 6 -10 4 -12 -5 -6 -9 6 -11 4 -5 -5 9 -14 13 -130 5 -130 -3
0 -6 -9 -6 -20 0 -11 3 -20 6 -20 8 0 3 -137 -5 -150 -3 -5 -3 -10 2 -10 4 0
7 -26 5 -57 -3 -66 -3 -68 1 -108 1 -16 -1 -40 -5 -52 -4 -13 -4 -23 0 -23 9
0 7 -104 -2 -119 -4 -6 -3 -11 2 -11 9 0 7 -71 -2 -97 -3 -7 -2 -13 2 -13 4 0
6 -26 4 -57 -3 -66 -3 -68 1 -108 1 -16 -1 -40 -5 -52 -4 -13 -4 -23 0 -23 9
0 7 -104 -2 -119 -4 -6 -3 -11 2 -11 9 0 7 -71 -2 -97 -3 -7 -2 -13 2 -13 4 0
6 -26 4 -57 -3 -66 -3 -68 1 -108 1 -16 -1 -40 -5 -52 -4 -13 -4 -23 0 -23 9
0 7 -104 -2 -119 -4 -6 -3 -11 2 -11 9 0 7 -71 -2 -97 -3 -7 -2 -13 2 -13 4 0
6 -26 4 -58 -3 -65 -3 -67 1 -107 1 -16 -1 -40 -5 -52 -4 -13 -4 -23 0 -23 9
0 7 -104 -2 -119 -4 -6 -3 -11 2 -11 9 0 7 -71 -2 -97 -3 -7 -2 -13 2 -13 4 0
6 -26 4 -57 -3 -67 -3 -57 0 -151 2 -39 1 -72 -2 -72 -3 0 -6 -9 -6 -20 0 -11
3 -20 6 -20 8 0 3 -137 -5 -150 -3 -5 -3 -10 2 -10 4 0 7 -26 5 -57 -3 -66 -3
-68 1 -108 1 -16 -1 -40 -5 -52 -4 -13 -4 -23 0 -23 9 0 7 -104 -2 -119 -4 -6
-4 -11 1 -11 4 0 8 -22 8 -50 0 -27 -4 -50 -9 -50 -6 0 -5 -5 1 -11 13 -13 6
-42 -8 -33 -6 3 -16 0 -24 -6 -8 -7 -15 -9 -15 -4 0 9 -122 9 -146 0 -8 -3
-14 -2 -14 2 0 9 -155 6 -170 -3 -5 -3 -10 -2 -10 2 0 10 -94 8 -110 -2 -5 -3
-10 -3 -10 2 0 8 -305 7 -327 -1 -7 -3 -13 -2 -13 2 0 9 -155 6 -170 -3 -5 -3
-10 -2 -10 2 0 10 -94 8 -110 -2 -5 -3 -10 -3 -10 2 0 9 -400 9 -424 0 -9 -4
-16 -3 -16 1 0 4 -21 7 -47 6 -27 -1 -52 0 -58 2 -11 5 -12 104 -1 122 4 7 4
12 -1 12 -10 0 -10 91 1 108 4 6 4 12 -1 12 -10 0 -10 91 1 108 4 6 4 12 -1
12 -10 0 -9 453 1 469 4 6 4 11 -1 11 -10 0 -10 91 1 108 4 6 4 12 -1 12 -10
0 -10 91 1 108 4 6 4 12 -1 12 -10 0 -10 91 1 108 4 6 4 12 -1 12 -10 0 -10
91 1 108 4 6 4 12 -1 12 -10 0 -10 131 1 148 4 6 4 12 -1 12 -10 0 -10 91 1
108 4 6 4 12 -1 12 -10 0 -10 91 1 108 4 6 4 12 -1 12 -10 0 -10 91 1 108 4 6
4 12 -1 12 -10 0 -10 91 1 108 4 6 4 12 -1 12 -10 0 -10 131 1 148 4 6 4 12
-1 12 -10 0 -10 91 1 108 4 6 4 12 -1 12 -10 0 -10 91 1 108 4 6 4 12 -1 12
-10 0 -10 91 1 108 4 6 4 12 -1 12 -10 0 -10 91 1 108 4 6 4 12 -1 12 -10 0
-10 131 1 148 4 6 4 12 -1 12 -10 0 -10 91 1 108 4 6 4 12 -1 12 -10 0 -10 91
1 108 4 6 4 12 -1 12 -10 0 -10 91 1 108 4 6 4 12 -1 12 -10 0 -10 91 1 108 4
6 4 12 -1 12 -10 0 -9 453 1 469 4 6 4 11 -1 11 -10 0 -10 91 1 108 4 6 4 12
-1 12 -10 0 -10 91 1 108 4 6 4 12 -1 12 -10 0 -10 91 1 108 4 6 4 12 -1 12
-10 0 -10 91 1 108 4 6 4 12 -1 12 -10 0 -9 533 1 549 4 6 4 11 -1 11 -10 0
-10 91 1 108 4 6 4 12 -1 12 -10 0 -9 52 1 68 4 7 4 12 -1 12 -10 0 -10 91 1
108 4 6 4 12 -1 12 -10 0 -10 91 1 108 4 6 4 12 -1 12 -4 0 -8 63 -8 140 0 93
4 140 11 140 6 0 56 -46 111 -102z m7027 49 c0 -23 -3 -48 -7 -54 -4 -6 -3
-14 2 -17 4 -3 5 -23 1 -45 -4 -22 -4 -44 0 -50 3 -6 5 -33 3 -59 -2 -26 -4
-51 -4 -57 0 -13 1 -103 1 -130 0 -84 0 -162 0 -175 0 -8 0 -44 0 -80 0 -36 0
-72 0 -80 0 -8 0 -44 0 -80 0 -36 0 -72 0 -80 0 -8 0 -44 0 -80 0 -36 0 -69 0
-75 0 -5 1 -21 3 -35 2 -14 0 -35 -5 -47 -4 -13 -4 -23 0 -23 4 0 6 -33 4 -72
-3 -94 -3 -85 -1 -144 1 -28 -1 -56 -5 -62 -4 -7 -3 -12 2 -12 4 0 7 -21 5
-47 -2 -27 -4 -52 -4 -58 0 -13 1 -103 1 -130 0 -84 0 -162 0 -175 0 -8 0 -44
0 -80 0 -36 0 -72 0 -80 0 -8 0 -44 0 -80 0 -36 0 -72 0 -80 0 -8 0 -44 0 -80
0 -36 0 -69 0 -75 0 -5 1 -21 3 -35 2 -14 0 -35 -5 -47 -4 -13 -4 -23 0 -23 4
0 6 -33 4 -72 -3 -94 -3 -85 -1 -144 1 -28 -1 -56 -5 -62 -4 -7 -3 -12 2 -12
4 0 7 -21 5 -47 -2 -27 -4 -52 -4 -58 0 -13 1 -103 1 -130 0 -84 0 -162 0
-175 0 -8 0 -44 0 -80 0 -36 0 -72 0 -80 0 -8 0 -44 0 -80 0 -36 0 -72 0 -80
0 -8 0 -44 0 -80 0 -36 0 -69 0 -75 0 -5 1 -21 3 -35 2 -14 0 -35 -5 -48 -4
-12 -4 -22 0 -22 4 0 6 -33 4 -72 -3 -94 -3 -85 -1 -144 1 -28 -1 -56 -5 -62
-4 -7 -3 -12 2 -12 4 0 7 -21 5 -47 -2 -27 -4 -52 -4 -58 0 -13 1 -103 1 -130
0 -84 0 -162 0 -175 0 -8 0 -44 0 -80 0 -36 0 -69 0 -75 0 -5 1 -21 3 -35 2
-14 0 -35 -5 -47 -4 -13 -4 -23 0 -23 4 0 6 -33 4 -72 -3 -94 -3 -85 -1 -144
1 -28 -1 -56 -5 -62 -4 -7 -3 -12 2 -12 4 0 7 -21 5 -47 -2 -27 -4 -52 -4 -58
0 -12 1 -102 1 -127 0 -10 1 -33 2 -50 2 -18 0 -43 -4 -55 -4 -13 -4 -23 0
-23 9 0 7 -83 -2 -106 -3 -9 -11 -12 -18 -8 -14 9 -163 8 -178 -1 -5 -3 -10
-2 -10 2 0 10 -154 8 -170 -2 -5 -3 -10 -2 -10 2 0 10 -94 8 -110 -2 -5 -3
-10 -2 -10 2 0 9 -143 8 -167 -1 -7 -3 -13 -2 -13 2 0 9 -155 6 -170 -3 -5 -3
-10 -2 -10 2 0 10 -94 8 -110 -2 -5 -3 -10 -2 -10 2 0 10 -253 8 -269 -1 -6
-4 -11 -4 -11 1 0 10 -293 9 -309 -1 -6 -4 -11 -3 -11 1 0 5 -24 8 -54 7 -52
-2 -54 -2 -58 26 -2 16 0 36 4 44 5 9 5 16 1 16 -4 0 -8 25 -8 55 0 30 4 55 8
55 5 0 5 5 1 11 -9 16 -11 109 -1 109 5 0 5 4 2 10 -10 16 -12 110 -2 110 4 0
5 5 1 11 -9 16 -11 109 -1 109 5 0 5 4 2 10 -10 16 -12 110 -2 110 4 0 5 5 1
11 -10 16 -11 229 -1 229 5 0 5 5 1 11 -9 16 -11 109 -1 109 5 0 5 4 2 10 -10
16 -12 110 -2 110 4 0 5 5 1 11 -9 16 -11 109 -1 109 5 0 5 4 2 10 -10 16 -12
110 -2 110 4 0 5 5 1 11 -9 16 -11 109 -1 109 5 0 5 4 2 10 -10 16 -12 110 -2
110 4 0 5 5 1 11 -9 16 -11 109 -1 109 5 0 5 4 2 10 -10 16 -12 110 -2 110 4
0 5 5 1 11 -9 16 -11 109 -1 109 5 0 5 4 2 10 -10 16 -12 110 -2 110 4 0 5 5
1 11 -9 16 -11 109 -1 109 5 0 5 4 2 10 -10 16 -12 110 -2 110 4 0 5 5 1 11
-9 16 -11 109 -1 109 5 0 5 4 2 10 -10 16 -12 110 -2 110 4 0 5 5 1 11 -9 16
-11 109 -1 109 5 0 5 4 2 10 -10 16 -12 110 -2 110 4 0 5 5 1 11 -9 16 -11
109 -1 109 5 0 5 4 2 10 -10 16 -12 110 -2 110 4 0 5 5 1 11 -10 17 -10 109 0
109 4 0 3 6 -3 13 -6 8 -8 16 -5 19 2 3 7 34 9 69 15 240 107 496 252 702 69
98 64 92 535 578 259 267 333 344 618 639 251 260 271 279 284 274 6 -2 11
-23 10 -47z"/>
</g>
</svg>
