<svg width="681" height="680" viewBox="0 0 681 680" fill="none" xmlns="http://www.w3.org/2000/svg">
<rect y="600" width="80" height="80" fill="black"/>
<rect y="600" width="80" height="80" stroke="black"/>
<rect x="601" y="600" width="80" height="80" fill="black"/>
<rect x="601" y="600" width="80" height="80" stroke="black"/>
<rect y="300" width="80" height="80" fill="black"/>
<rect y="300" width="80" height="80" stroke="black"/>
<rect x="601" y="300" width="80" height="80" fill="black"/>
<rect x="601" y="300" width="80" height="80" stroke="black"/>
<rect y="450" width="80" height="80" fill="black"/>
<rect y="450" width="80" height="80" stroke="black"/>
<rect x="601" y="450" width="80" height="80" fill="black"/>
<rect x="601" y="450" width="80" height="80" stroke="black"/>
<rect y="150" width="80" height="80" fill="black"/>
<rect y="150" width="80" height="80" stroke="black"/>
<rect x="601" y="150" width="80" height="80" fill="black"/>
<rect x="601" y="150" width="80" height="80" stroke="black"/>
<rect width="80" height="80" fill="black"/>
<rect width="80" height="80" stroke="black"/>
<rect x="601" width="80" height="80" fill="black"/>
<rect x="601" width="80" height="80" stroke="black"/>
<rect x="301" width="80" height="80" fill="black"/>
<rect x="301" width="80" height="80" stroke="black"/>
<rect x="301" y="600" width="80" height="80" fill="black"/>
<rect x="301" y="600" width="80" height="80" stroke="black"/>
<rect x="451" width="80" height="80" fill="black"/>
<rect x="451" width="80" height="80" stroke="black"/>
<rect x="451" y="600" width="80" height="80" fill="black"/>
<rect x="451" y="600" width="80" height="80" stroke="black"/>
<rect x="150" width="80" height="80" fill="black"/>
<rect x="150" width="80" height="80" stroke="black"/>
<rect x="150" y="600" width="80" height="80" fill="black"/>
<rect x="150" y="600" width="80" height="80" stroke="black"/>
<rect x="440" y="440" width="100" height="100" fill="black"/>
<rect x="440" y="440" width="100" height="100" stroke="black"/>
<rect x="440" y="290" width="100" height="100" fill="black"/>
<rect x="440" y="290" width="100" height="100" stroke="black"/>
<rect x="441" y="140" width="100" height="100" fill="black"/>
<rect x="441" y="140" width="100" height="100" stroke="black"/>
<rect x="290" y="440" width="100" height="100" fill="black"/>
<rect x="290" y="440" width="100" height="100" stroke="black"/>
<rect x="280" y="280" width="120" height="120" fill="black"/>
<rect x="280" y="280" width="120" height="120" stroke="black"/>
<rect x="291" y="140" width="100" height="100" fill="black"/>
<rect x="291" y="140" width="100" height="100" stroke="black"/>
<rect x="140" y="440" width="100" height="100" fill="black"/>
<rect x="140" y="440" width="100" height="100" stroke="black"/>
<rect x="140" y="290" width="100" height="100" fill="black"/>
<rect x="140" y="290" width="100" height="100" stroke="black"/>
<rect x="141" y="140" width="100" height="100" fill="black"/>
<rect x="141" y="140" width="100" height="100" stroke="black"/>
</svg>
